<svg xmlns="http://www.w3.org/2000/svg" version="1.1" xmlns:xlink="http://www.w3.org/1999/xlink" xmlns:svgjs="http://svgjs.dev/svgjs" width="1440" height="560" preserveAspectRatio="none" viewBox="0 0 1440 560"><g mask="url(&quot;#SvgjsMask1000&quot;)" fill="none"><rect width="1440" height="560" x="0" y="0" fill="#0e2a47"></rect><path d="M0,358.466C63.768,341.696,108.512,290.753,162.895,253.469C215.326,217.523,280.17,197.25,313.819,143.316C349.454,86.199,359.226,16.295,352.668,-50.706C345.92,-119.646,315.985,-182.65,276.354,-239.462C233.195,-301.332,185.889,-365.826,114.95,-391.483C42.401,-417.722,-38.042,-403.308,-111.502,-379.742C-183.694,-356.583,-250.397,-317.261,-298.664,-258.794C-346.259,-201.141,-373.359,-129.096,-379.902,-54.622C-386.225,17.355,-359.704,85.074,-334.834,152.913C-307.965,226.206,-295.683,315.733,-229.156,356.574C-162.711,397.364,-75.403,378.296,0,358.466" fill="#0b2239"></path><path d="M1440 1017.8C1524.294 1026.328 1600.1399999999999 963.828 1663.063 907.0930000000001 1719.7359999999999 855.9929999999999 1747.155 784.134 1777.029 713.9159999999999 1806.1309999999999 645.512 1837.199 577.524 1834.8890000000001 503.223 1832.408 423.41999999999996 1812.233 342.927 1763.527 279.662 1713.3609999999999 214.50099999999998 1641.766 163.551 1561.095 147.587 1483.266 132.185 1406.274 164.83300000000003 1332.648 194.39299999999997 1264.984 221.55900000000003 1211.66 267.962 1153.093 311.394 1076.906 367.892 969.796 398.65 937.131 487.698 903.864 578.388 924.812 692.518 985.813 767.42 1045.126 840.249 1161.9180000000001 819.367 1244.173 864.712 1318.232 905.539 1355.863 1009.287 1440 1017.8" fill="#113255"></path></g><defs><mask id="SvgjsMask1000"><rect width="1440" height="560" fill="#ffffff"></rect></mask></defs></svg>